<svg xmlns="http://www.w3.org/2000/svg" width="128" height="128" viewBox="0 0 128 128">
  <defs>
    <linearGradient id="nexusGradient" x1="0%" y1="0%" x2="100%" y2="100%">
      <stop offset="0%" style="stop-color:#1976D2;stop-opacity:1" />
      <stop offset="50%" style="stop-color:#2196F3;stop-opacity:1" />
      <stop offset="100%" style="stop-color:#03A9F4;stop-opacity:1" />
    </linearGradient>
  </defs>
  
  <!-- Background circle -->
  <circle cx="64" cy="64" r="60" fill="url(#nexusGradient)" stroke="#ffffff" stroke-width="2"/>
  
  <!-- Cloud icon -->
  <path d="M64 32c-8.8 0-16 7.2-16 16 0 1.6 0.2 3.1 0.6 4.5C44.2 54.1 41 58.7 41 64c0 7.7 6.3 14 14 14h18c5.5 0 10-4.5 10-10s-4.5-10-10-10c-1.1 0-2.1 0.2-3.1 0.5C68.4 54.9 66.3 52 63.5 52c-1.9 0-3.6 1.1-4.4 2.8C57.4 52.3 55.3 51 53 51c-3.3 0-6 2.7-6 6 0 0.8 0.2 1.5 0.5 2.2C45.9 60.4 45 62.1 45 64c0 3.9 3.1 7 7 7h21c1.7 0 3-1.3 3-3s-1.3-3-3-3H52c-0.6 0-1-0.4-1-1s0.4-1 1-1h21c5.5 0 10-4.5 10-10C83 43.1 74.9 35 64.5 35z" fill="#ffffff"/>
  
  <!-- Letter N -->
  <text x="64" y="90" font-family="Vazirmatn, Roboto, sans-serif" font-size="24" font-weight="bold" text-anchor="middle" fill="#ffffff">N</text>
</svg>
