<svg xmlns="http://www.w3.org/2000/svg" version="1.0" width="370.000000pt" height="195.000000pt" viewBox="0 0 370.000000 195.000000" preserveAspectRatio="xMidYMid meet">

<g transform="translate(0.000000,195.000000) scale(0.100000,-0.100000)" fill="#ffffff" stroke="none">
<path d="M1625 1866 c-235 -45 -413 -189 -512 -416 -48 -110 -42 -154 24 -174 12 -4 56 -29 98 -57 42 -27 79 -49 84 -49 4 0 11 30 14 67 13 137 96 257 221 318 93 46 177 61 264 47 270 -45 423 -323 317 -573 -47 -111 -47 -112 45 -212 l82 -87 91 86 c128 120 163 139 257 138 121 0 205 -40 259 -121 104 -157 33 -389 -137 -447 -25 -9 -77 -16 -116 -16 -113 0 -132 15 -548 426 l-367 364 -181 0 c-121 0 -180 -3 -180 -11 0 -27 933 -930 1008 -976 117 -72 308 -91 450 -44 400 131 523 631 228 927 -136 137 -314 195 -505 165 -86 -14 -91 -11 -91 59 -1 142 -102 328 -238 435 -70 56 -196 119 -277 140 -87 22 -209 27 -290 11z" fill="#ffffff"/>
<path d="M795 1224 c-103 -16 -224 -75 -304 -150 -293 -271 -213 -757 154 -925 56 -25 76 -28 260 -38 344 -18 818 -26 814 -13 -2 7 -62 70 -132 142 l-129 130 -320 0 c-209 0 -334 4 -358 11 -59 18 -130 78 -164 139 -28 50 -31 63 -31 140 0 100 21 155 80 215 50 50 115 77 196 83 130 9 174 -25 694 -547 l310 -311 182 0 c101 0 183 3 183 8 0 4 -170 176 -377 383 -678 673 -678 673 -813 713 -56 17 -193 28 -245 20z" fill="#ffffff"/>
</g>
</svg>
